<svg width="58" height="58" viewBox="0 0 58 58" fill="none" xmlns="http://www.w3.org/2000/svg">
<path d="M29 58C45.0167 58 58 45.0167 58 29C58 12.9833 45.0167 0 29 0C12.9833 0 0 12.9833 0 29C0 45.0167 12.9833 58 29 58Z" fill="#863FF8"/>
<path d="M22.2622 12.028C21.3001 11.4573 20.1067 11.4573 19.1446 12.028L11.4585 16.5865C10.5195 17.1434 9.94287 18.1598 9.94287 19.2583V28.409C9.94287 29.5075 10.5195 30.5239 11.4585 31.0808L19.1446 35.6393C20.1067 36.21 21.3001 36.21 22.2622 35.6393L38.1252 26.2312L44.7865 30.1819V38.1507L38.1252 42.1014L31.4639 38.1507V33.133L27.3647 35.7162V38.7417C27.3647 39.8401 27.9413 40.8565 28.8803 41.4135L36.5664 45.972C37.5285 46.5426 38.7219 46.5426 39.684 45.972L47.3701 41.4135C48.3092 40.8565 48.8857 39.8401 48.8857 38.7417V29.5909C48.8857 28.4925 48.3092 27.4761 47.3701 26.9191L39.684 22.3606C38.7219 21.79 37.5285 21.79 36.5664 22.3606L20.7034 31.7688L14.0421 27.818V19.8493L20.7034 15.8985L27.3647 19.8493V24.8669L31.4639 22.2838V19.2583C31.4639 18.1598 30.8873 17.1434 29.9483 16.5865L22.2622 12.028Z" fill="white"/>
</svg>
