<svg width="58" height="58" viewBox="0 0 58 58" fill="none" xmlns="http://www.w3.org/2000/svg">
<path d="M49.4283 49.6453C46.7291 52.3497 43.514 54.4826 39.9745 55.917C36.4351 57.3515 32.6436 58.0581 28.8257 57.9948C25.0299 58.0682 21.2591 57.3656 17.7437 55.9299C14.2283 54.4943 11.0422 52.3559 8.38023 49.6453C5.65611 46.9893 3.50689 43.8004 2.0663 40.277C0.625702 36.7536 -0.0754611 32.971 0.00642921 29.1646C0.00642921 20.8294 2.7977 13.8857 8.38023 8.3337C11.044 5.62698 14.2309 3.49248 17.7462 2.06058C21.2616 0.628689 25.0315 -0.0705384 28.8257 0.00561451C32.642 -0.0604706 36.4326 0.64276 39.972 2.07347C43.5114 3.50418 46.7273 5.63314 49.4283 8.3337C55.1393 13.8857 57.9949 20.8294 57.9949 29.1646C58.0688 32.9874 57.3451 36.7836 55.87 40.3102C54.3949 43.8369 52.2009 47.0164 49.4283 49.6453Z" fill="#C8C8C8"/>
<path d="M28.9999 9.11426L17.3999 28.8819L28.9999 23.4647V9.11426Z" fill="#8B8B8B"/>
<path d="M28.9999 23.4647L17.3999 28.8819L28.9999 35.9196V23.4647Z" fill="#393939"/>
<path d="M29 9.11426V23.4647L40.5889 28.8819L29 9.11426Z" fill="#343434"/>
<path d="M29 23.4647V35.9196L40.5889 28.8819L29 23.4647Z" fill="#161616"/>
<path d="M17.3999 31.138L28.9999 47.9279V38.1815L17.3999 31.138Z" fill="#8B8B8B"/>
<path d="M40.6 31.138L29 38.1815V47.9279L40.6 31.138Z" fill="#343434"/>
</svg>
