<svg width="19" height="19" viewBox="0 0 19 19" fill="none" xmlns="http://www.w3.org/2000/svg">
<path d="M8.77152 0C9.16106 0 9.55109 0 9.94063 0C9.98749 0.0102511 10.0344 0.0224548 10.0812 0.0302652C10.6675 0.131312 11.2733 0.168899 11.8371 0.34268C15.5319 1.48202 17.7822 3.9579 18.5662 7.75716C18.636 8.09593 18.6633 8.443 18.7102 8.78666C18.7102 9.17718 18.7102 9.5677 18.7102 9.95821C18.7 10.0056 18.6838 10.0519 18.6799 10.0998C18.5154 12.1534 17.7647 13.9654 16.4154 15.5163C14.9651 17.1838 13.1443 18.2147 10.9672 18.6028C10.6275 18.6634 10.2828 18.698 9.94063 18.7449C9.55109 18.7449 9.16106 18.7449 8.77152 18.7449C8.50108 18.7097 8.22967 18.6799 7.96021 18.638C5.57903 18.264 3.60398 17.1516 2.09756 15.2737C0.226978 12.9413 -0.376861 10.277 0.223561 7.34906C0.970427 3.70895 4.06968 0.742473 7.7259 0.14498C8.07346 0.0883547 8.42298 0.0478385 8.77152 0ZM9.36706 1.31165C4.93028 1.29945 1.31848 4.91028 1.31115 9.36609C1.30383 13.8068 4.88781 17.4093 9.3363 17.4332C13.7662 17.4571 17.3839 13.8483 17.4015 9.38757C17.4191 4.94445 13.817 1.32386 9.36706 1.31165Z" fill="#D6CEFF"/>
<path d="M10.3139 10.7393C10.3139 11.4891 10.3081 12.2389 10.3174 12.9887C10.3203 13.2171 10.2314 13.3802 10.0464 13.4895C9.60857 13.7487 9.15801 13.7575 8.70989 13.5173C8.50145 13.4056 8.40285 13.2298 8.40431 12.9794C8.41115 11.4862 8.41164 9.99242 8.40431 8.49918C8.40285 8.20678 8.52879 8.01933 8.78507 7.91926C9.1751 7.76745 9.5705 7.76989 9.95711 7.93537C10.1963 8.03788 10.3218 8.21069 10.3179 8.48942C10.3066 9.2397 10.3139 9.9895 10.3139 10.7393Z" fill="#D6CEFF"/>
<path d="M9.3727 6.67397C9.03588 6.67202 8.76252 6.55974 8.55066 6.31469C8.27486 5.99544 8.2812 5.56539 8.56287 5.25102C8.95534 4.81315 9.71148 4.80046 10.1152 5.22856C10.3329 5.45897 10.4139 5.73184 10.3065 6.03645C10.1767 6.40451 9.89307 6.59391 9.52012 6.66225C9.4674 6.6725 9.41175 6.67153 9.3727 6.67397Z" fill="#D6CEFF"/>
</svg>
