<svg width="30" height="30" viewBox="0 0 30 30" fill="none" xmlns="http://www.w3.org/2000/svg">
<circle cx="15" cy="15" r="15" fill="#8882FF"/>
<path d="M15.3023 7.6107C17.2534 7.6107 17.4844 7.62118 18.2517 7.66311C18.9649 7.70154 19.3499 7.84829 19.6067 7.97057C19.9461 8.13129 20.1914 8.32695 20.4453 8.63791C20.702 8.95236 20.8589 9.24935 20.9901 9.66512C21.0899 9.97958 21.2098 10.4548 21.2411 11.3247C21.2754 12.2681 21.2839 12.5511 21.2839 14.9375C21.2839 17.3273 21.2754 17.6103 21.2411 18.5502C21.2098 19.4237 21.0899 19.8953 20.9901 20.2098C20.8589 20.6256 20.6992 20.926 20.4453 21.237C20.1886 21.5514 19.9461 21.7436 19.6067 21.9043C19.3499 22.0266 18.962 22.1734 18.2517 22.2118C17.4816 22.2537 17.2505 22.2642 15.3023 22.2642C13.3512 22.2642 13.1202 22.2537 12.3529 22.2118C11.6397 22.1734 11.2547 22.0266 10.9979 21.9043C10.6585 21.7436 10.4132 21.548 10.1593 21.237C9.90259 20.9225 9.74571 20.6256 9.61449 20.2098C9.51466 19.8953 9.39485 19.4202 9.36348 18.5502C9.32925 17.6068 9.32069 17.3238 9.32069 14.9375C9.32069 12.5476 9.32925 12.2646 9.36348 11.3247C9.39485 10.4513 9.51466 9.97958 9.61449 9.66512C9.74571 9.24935 9.90544 8.94887 10.1593 8.63791C10.416 8.32346 10.6585 8.13129 10.9979 7.97057C11.2547 7.84829 11.6426 7.70154 12.3529 7.66311C13.1202 7.62118 13.3512 7.6107 15.3023 7.6107ZM15.3023 6C13.3198 6 13.0717 6.01048 12.293 6.05241C11.5171 6.09434 10.9837 6.24807 10.5216 6.46819C10.0395 6.69878 9.63161 7.00276 9.22656 7.50239C8.81866 7.99852 8.57049 8.49815 8.38223 9.08513C8.20252 9.65464 8.07702 10.3045 8.04279 11.2549C8.00856 12.2122 8 12.5162 8 14.9444C8 17.3727 8.00856 17.6767 8.04279 18.6305C8.07702 19.5809 8.20252 20.2342 8.38223 20.8003C8.57049 21.3907 8.81866 21.8904 9.22656 22.3865C9.63161 22.8826 10.0395 23.1901 10.5187 23.4172C10.9837 23.6373 11.5142 23.7911 12.2901 23.833C13.0688 23.8749 13.317 23.8854 15.2995 23.8854C17.2819 23.8854 17.5301 23.8749 18.3088 23.833C19.0847 23.7911 19.6181 23.6373 20.0802 23.4172C20.5594 23.1901 20.9673 22.8826 21.3723 22.3865C21.7774 21.8904 22.0284 21.3907 22.2138 20.8037C22.3935 20.2342 22.519 19.5844 22.5533 18.634C22.5875 17.6802 22.596 17.3762 22.596 14.9479C22.596 12.5197 22.5875 12.2157 22.5533 11.2618C22.519 10.3115 22.3935 9.65814 22.2138 9.09212C22.0341 8.49815 21.7859 7.99852 21.378 7.50239C20.973 7.00625 20.5651 6.69878 20.0859 6.47168C19.6209 6.25156 19.0904 6.09783 18.3145 6.0559C17.5329 6.01048 17.2848 6 15.3023 6Z" fill="white"/>
<path d="M15.3023 10.35C13.2314 10.35 11.5513 12.4079 11.5513 14.9445C11.5513 17.4811 13.2314 19.539 15.3023 19.539C17.3731 19.539 19.0532 17.4811 19.0532 14.9445C19.0532 12.4079 17.3731 10.35 15.3023 10.35ZM15.3023 17.9248C13.9587 17.9248 12.8691 16.5901 12.8691 14.9445C12.8691 13.2988 13.9587 11.9642 15.3023 11.9642C16.6458 11.9642 17.7354 13.2988 17.7354 14.9445C17.7354 16.5901 16.6458 17.9248 15.3023 17.9248Z" fill="white"/>
<path d="M20.0773 10.1683C20.0773 10.7623 19.6837 11.241 19.2016 11.241C18.7167 11.241 18.3259 10.7588 18.3259 10.1683C18.3259 9.57437 18.7196 9.0957 19.2016 9.0957C19.6837 9.0957 20.0773 9.57787 20.0773 10.1683Z" fill="white"/>
</svg>
