<svg width="30" height="30" viewBox="0 0 30 30" fill="none" xmlns="http://www.w3.org/2000/svg">
<circle cx="15" cy="15" r="15" fill="#8882FF"/>
<path d="M20.9506 7.2251H9.95282C9.426 7.2251 9 7.73454 9 8.3644V21.8909C9 22.5208 9.426 23.0333 9.95282 23.0333H20.9506C21.4774 23.0333 21.9059 22.5208 21.9059 21.894V8.3644C21.9059 7.73454 21.4774 7.2251 20.9506 7.2251ZM12.8289 20.696H10.9132V13.1501H12.8289V20.696ZM11.8711 12.1219C11.256 12.1219 10.7594 11.5137 10.7594 10.7634C10.7594 10.0131 11.256 9.4049 11.8711 9.4049C12.4836 9.4049 12.9802 10.0131 12.9802 10.7634C12.9802 11.5106 12.4836 12.1219 11.8711 12.1219ZM19.9978 20.696H18.0846V17.028C18.0846 16.1543 18.072 15.0273 17.0889 15.0273C16.0932 15.0273 15.942 15.9814 15.942 16.9663V20.696H14.0313V13.1501H15.8664V14.1813H15.8916C16.1462 13.5885 16.7713 12.9618 17.7014 12.9618C19.6398 12.9618 19.9978 14.524 19.9978 16.5557V20.696V20.696Z" fill="white"/>
</svg>
