<svg width="160" height="88" viewBox="0 0 160 88" fill="none" xmlns="http://www.w3.org/2000/svg">
<ellipse cx="44.4442" cy="44" rx="43.5556" ry="44" fill="url(#paint0_linear_2051_533)"/>
<path d="M56.84 81V36.2H83.304V44.008H64.648V53.096H80.232V60.904H64.648V81H56.84Z" fill="#05041C"/>
<path d="M85.3775 74.34V63H89.7695V73.188C89.7695 73.896 89.9435 74.544 90.2915 75.132C90.6395 75.708 91.1015 76.17 91.6775 76.518C92.2655 76.854 92.9075 77.022 93.6035 77.022C94.3235 77.022 94.9715 76.854 95.5475 76.518C96.1235 76.17 96.5855 75.708 96.9335 75.132C97.2815 74.544 97.4555 73.896 97.4555 73.188V63H101.848L101.866 81H97.4735L97.4555 79.362C96.8315 80.01 96.0935 80.526 95.2415 80.91C94.3895 81.282 93.4775 81.468 92.5055 81.468C91.1975 81.468 90.0035 81.15 88.9235 80.514C87.8435 79.866 86.9795 79.008 86.3315 77.94C85.6955 76.86 85.3775 75.66 85.3775 74.34ZM105.574 81V54H109.966V81H105.574ZM114.293 81V54H118.685V81H114.293ZM130.65 81.468C128.994 81.468 127.482 81.042 126.114 80.19C124.758 79.338 123.672 78.192 122.856 76.752C122.052 75.312 121.65 73.722 121.65 71.982C121.65 70.674 121.884 69.45 122.352 68.31C122.82 67.158 123.462 66.15 124.278 65.286C125.106 64.41 126.066 63.726 127.158 63.234C128.25 62.742 129.414 62.496 130.65 62.496C132.054 62.496 133.338 62.796 134.502 63.396C135.678 63.984 136.674 64.794 137.49 65.826C138.306 66.858 138.9 68.034 139.272 69.354C139.644 70.674 139.728 72.054 139.524 73.494H126.366C126.534 74.166 126.81 74.772 127.194 75.312C127.578 75.84 128.064 76.266 128.652 76.59C129.24 76.902 129.906 77.064 130.65 77.076C131.418 77.088 132.114 76.908 132.738 76.536C133.374 76.152 133.902 75.636 134.322 74.988L138.804 76.032C138.072 77.628 136.98 78.936 135.528 79.956C134.076 80.964 132.45 81.468 130.65 81.468ZM126.222 70.2H135.078C134.946 69.48 134.664 68.832 134.232 68.256C133.812 67.668 133.29 67.2 132.666 66.852C132.042 66.504 131.37 66.33 130.65 66.33C129.93 66.33 129.264 66.504 128.652 66.852C128.04 67.188 127.518 67.65 127.086 68.238C126.666 68.814 126.378 69.468 126.222 70.2ZM152.101 67.392H148.609V81H144.217V67.392H141.553V63H144.217V57.348H148.609V63H152.101V67.392Z" fill="black"/>
<defs>
<linearGradient id="paint0_linear_2051_533" x1="44.4442" y1="0" x2="44.4442" y2="88" gradientUnits="userSpaceOnUse">
<stop stop-color="#3461FF"/>
<stop offset="1" stop-color="#8454EB"/>
</linearGradient>
</defs>
</svg>
