<svg width="26" height="26" viewBox="0 0 26 26" fill="none" xmlns="http://www.w3.org/2000/svg">
<circle cx="13" cy="13" r="13" fill="#8247E5"/>
<g clip-path="url(#clip0_602_1889)">
<path d="M17.1199 10.1718C16.824 10.0018 16.4437 10.0018 16.1055 10.1718L13.7388 11.5744L12.1327 12.4669L9.80819 13.8695C9.51234 14.0395 9.13196 14.0395 8.79385 13.8695L6.97649 12.7645C6.68064 12.5944 6.46932 12.2544 6.46932 11.8719V9.74683C6.46932 9.40682 6.63838 9.0668 6.97649 8.85429L8.79385 7.79175C9.0897 7.62174 9.47007 7.62174 9.80819 7.79175L11.6255 8.8968C11.9214 9.0668 12.1327 9.40682 12.1327 9.78933V11.1919L13.7388 10.2569V8.81179C13.7388 8.47178 13.5697 8.13176 13.2316 7.91926L9.85045 5.92167C9.5546 5.75166 9.17422 5.75166 8.83611 5.92167L5.37045 7.96176C5.03234 8.13176 4.86328 8.47178 4.86328 8.81179V12.807C4.86328 13.147 5.03234 13.487 5.37045 13.6995L8.79385 15.6971C9.0897 15.8671 9.47007 15.8671 9.80819 15.6971L12.1327 14.337L13.7388 13.402L16.0633 12.0419C16.3591 11.8719 16.7395 11.8719 17.0776 12.0419L18.895 13.1045C19.1908 13.2745 19.4022 13.6145 19.4022 13.997V16.1221C19.4022 16.4621 19.2331 16.8021 18.895 17.0146L17.1199 18.0772C16.824 18.2472 16.4437 18.2472 16.1055 18.0772L14.2882 17.0146C13.9923 16.8446 13.781 16.5046 13.781 16.1221V14.762L12.175 15.6971V17.0996C12.175 17.4397 12.344 17.7797 12.6821 17.9922L16.1055 19.9898C16.4014 20.1598 16.7818 20.1598 17.1199 19.9898L20.5433 17.9922C20.8391 17.8222 21.0505 17.4822 21.0505 17.0996V13.062C21.0505 12.722 20.8814 12.3819 20.5433 12.1694L17.1199 10.1718Z" fill="white"/>
</g>
<defs>
<clipPath id="clip0_602_1889">
<rect width="16.2294" height="14.2381" fill="white" transform="translate(4.86328 5.83667)"/>
</clipPath>
</defs>
</svg>
