<svg width="36" height="24" viewBox="0 0 36 24" fill="none" xmlns="http://www.w3.org/2000/svg">
<path d="M24 24C30.6276 24 36 18.6276 36 12C36 5.3724 30.6276 0 24 0C17.3724 0 12 5.3724 12 12C12 18.6276 17.3724 24 24 24Z" fill="#863FF8"/>
<path d="M21.2129 4.97714C20.8148 4.74102 20.321 4.74102 19.9228 4.97714L16.7424 6.86343C16.3538 7.09389 16.1152 7.51447 16.1152 7.96901V11.7555C16.1152 12.21 16.3538 12.6306 16.7424 12.8611L19.9228 14.7474C20.321 14.9835 20.8148 14.9835 21.2129 14.7474L27.7769 10.8543L30.5333 12.4891V15.7865L27.7769 17.4213L25.0205 15.7865V13.7103L23.3243 14.7792V16.0311C23.3243 16.4856 23.5628 16.9062 23.9514 17.1367L27.1319 19.023C27.53 19.2591 28.0238 19.2591 28.4219 19.023L31.6024 17.1367C31.9909 16.9062 32.2295 16.4856 32.2295 16.0311V12.2446C32.2295 11.7901 31.9909 11.3695 31.6024 11.139L28.4219 9.25272C28.0238 9.0166 27.53 9.0166 27.1319 9.25272L20.5679 13.1458L17.8115 11.511V8.21355L20.5679 6.57877L23.3243 8.21355V10.2898L25.0205 9.22093V7.96901C25.0205 7.51447 24.7819 7.09389 24.3933 6.86343L21.2129 4.97714Z" fill="white"/>
<path d="M20.4531 20.5429C19.3362 21.6619 18.0058 22.5445 16.5412 23.1381C15.0766 23.7316 13.5077 24.024 11.9279 23.9978C10.3572 24.0282 8.79687 23.7375 7.34222 23.1434C5.88757 22.5494 4.56919 21.6645 3.46768 20.5429C2.34046 19.4438 1.45113 18.1243 0.85502 16.6663C0.258911 15.2084 -0.0312253 13.6432 0.00266036 12.0681C0.00266036 8.61906 1.15767 5.74583 3.46768 3.44843C4.56995 2.3284 5.88866 1.44516 7.34327 0.852655C8.79789 0.260147 10.3579 -0.0291883 11.9279 0.00232325C13.5071 -0.0250223 15.0756 0.26597 16.5402 0.857987C18.0047 1.45001 19.3354 2.33095 20.4531 3.44843C22.8163 5.74583 23.9979 8.61906 23.9979 12.0681C24.0285 13.65 23.729 15.2208 23.1186 16.6801C22.5082 18.1394 21.6004 19.4551 20.4531 20.5429Z" fill="#C8C8C8"/>
<path d="M11.9992 3.77148L7.19922 11.9512L11.9992 9.70958V3.77148Z" fill="#8B8B8B"/>
<path d="M11.9992 9.70959L7.19922 11.9512L11.9992 14.8634V9.70959Z" fill="#393939"/>
<path d="M12 3.77148V9.70958L16.7954 11.9512L12 3.77148Z" fill="#343434"/>
<path d="M12 9.70959V14.8634L16.7954 11.9512L12 9.70959Z" fill="#161616"/>
<path d="M7.19922 12.8848L11.9992 19.8323V15.7993L7.19922 12.8848Z" fill="#8B8B8B"/>
<path d="M16.8 12.8848L12 15.7993V19.8323L16.8 12.8848Z" fill="#343434"/>
</svg>
