<svg width="30" height="30" viewBox="0 0 30 30" fill="none" xmlns="http://www.w3.org/2000/svg">
<circle cx="15" cy="15" r="15" fill="#8882FF"/>
<path d="M12.348 24.3732C18.7615 24.3732 22.2704 17.3037 22.2704 11.175C22.2704 10.9763 22.2671 10.7731 22.2605 10.5744C22.9431 9.91777 23.5321 9.10447 24 8.1727C23.3643 8.54891 22.6893 8.79461 21.9982 8.90141C22.7259 8.32119 23.2708 7.40969 23.5318 6.33589C22.8472 6.87556 22.0985 7.25625 21.3179 7.46164C20.7918 6.71822 20.0964 6.22598 19.3389 6.06104C18.5815 5.89609 17.8043 6.06763 17.1276 6.54913C16.4508 7.03063 15.9121 7.79527 15.5948 8.72483C15.2775 9.65439 15.1993 10.6971 15.3722 11.6917C13.9859 11.5992 12.6298 11.1202 11.3917 10.2858C10.1535 9.45142 9.06103 8.28024 8.18502 6.8482C7.73978 7.86926 7.60354 9.07752 7.80398 10.2274C8.00442 11.3773 8.5265 12.3825 9.26412 13.0388C8.71036 13.0154 8.16873 12.8171 7.68398 12.4602V12.5176C7.68349 13.5892 7.96199 14.6278 8.47214 15.4571C8.98229 16.2864 9.6926 16.8551 10.4823 17.0666C9.96937 17.2533 9.43099 17.2805 8.90885 17.1461C9.1317 18.0676 9.56528 18.8736 10.1491 19.4516C10.7329 20.0295 11.4378 20.3507 12.1654 20.3701C10.9301 21.6608 9.40421 22.3608 7.8334 22.3575C7.55483 22.3569 7.27653 22.3342 7 22.2895C8.59577 23.6513 10.4521 24.3745 12.348 24.3732Z" fill="white"/>
</svg>
